<mxfile host="app.diagrams.net" agent="Mozilla/5.0 (Windows NT 10.0; Win64; x64) AppleWebKit/537.36 (KHTML, like Gecko) Chrome/134.0.0.0 Safari/537.36 Edg/134.0.0.0" version="26.1.0">
  <diagram id="C5RBs43oDa-KdzZeNtuy" name="Page-1">
    <mxGraphModel dx="640" dy="449" grid="1" gridSize="10" guides="1" tooltips="1" connect="1" arrows="1" fold="1" page="1" pageScale="1" pageWidth="827" pageHeight="1169" math="0" shadow="0">
      <root>
        <mxCell id="WIyWlLk6GJQsqaUBKTNV-0" />
        <mxCell id="WIyWlLk6GJQsqaUBKTNV-1" parent="WIyWlLk6GJQsqaUBKTNV-0" />
        <mxCell id="WIyWlLk6GJQsqaUBKTNV-3" value="SpringSecurity&lt;div&gt;认证流程&lt;/div&gt;" style="rounded=1;whiteSpace=wrap;html=1;fontSize=12;glass=0;strokeWidth=1;shadow=0;" parent="WIyWlLk6GJQsqaUBKTNV-1" vertex="1">
          <mxGeometry x="80" y="60" width="120" height="40" as="geometry" />
        </mxCell>
        <mxCell id="dbT4wgJQlKrbsk1Rjgz7-1" value="接口" style="text;html=1;align=center;verticalAlign=middle;resizable=0;points=[];autosize=1;strokeColor=none;fillColor=none;rounded=1;" vertex="1" parent="WIyWlLk6GJQsqaUBKTNV-1">
          <mxGeometry x="50" y="125" width="50" height="30" as="geometry" />
        </mxCell>
        <mxCell id="dbT4wgJQlKrbsk1Rjgz7-2" value="AbStractAuthenticationProcessingFilter" style="text;html=1;align=center;verticalAlign=middle;resizable=0;points=[];autosize=1;strokeColor=none;fillColor=none;rounded=1;" vertex="1" parent="WIyWlLk6GJQsqaUBKTNV-1">
          <mxGeometry x="100" y="125" width="230" height="30" as="geometry" />
        </mxCell>
        <mxCell id="dbT4wgJQlKrbsk1Rjgz7-3" value="实现类" style="text;html=1;align=center;verticalAlign=middle;resizable=0;points=[];autosize=1;strokeColor=none;fillColor=none;rounded=1;" vertex="1" parent="WIyWlLk6GJQsqaUBKTNV-1">
          <mxGeometry x="45" y="178" width="60" height="30" as="geometry" />
        </mxCell>
        <mxCell id="dbT4wgJQlKrbsk1Rjgz7-10" value="" style="edgeStyle=orthogonalEdgeStyle;rounded=1;orthogonalLoop=1;jettySize=auto;html=1;" edge="1" parent="WIyWlLk6GJQsqaUBKTNV-1" source="dbT4wgJQlKrbsk1Rjgz7-5">
          <mxGeometry relative="1" as="geometry">
            <mxPoint x="215" y="570" as="targetPoint" />
          </mxGeometry>
        </mxCell>
        <mxCell id="dbT4wgJQlKrbsk1Rjgz7-14" value="Text" style="edgeLabel;html=1;align=center;verticalAlign=middle;resizable=0;points=[];rounded=1;" vertex="1" connectable="0" parent="dbT4wgJQlKrbsk1Rjgz7-10">
          <mxGeometry x="-0.5126" y="1" relative="1" as="geometry">
            <mxPoint x="44" y="24" as="offset" />
          </mxGeometry>
        </mxCell>
        <mxCell id="dbT4wgJQlKrbsk1Rjgz7-5" value="UsernamePasswordAuthenticationFilter" style="whiteSpace=wrap;html=1;rounded=1;" vertex="1" parent="WIyWlLk6GJQsqaUBKTNV-1">
          <mxGeometry x="100" y="171" width="230" height="37" as="geometry" />
        </mxCell>
        <mxCell id="dbT4wgJQlKrbsk1Rjgz7-6" value="AuthenticationManager" style="text;html=1;align=center;verticalAlign=middle;resizable=0;points=[];autosize=1;strokeColor=none;fillColor=none;rounded=1;" vertex="1" parent="WIyWlLk6GJQsqaUBKTNV-1">
          <mxGeometry x="420" y="125" width="150" height="30" as="geometry" />
        </mxCell>
        <mxCell id="dbT4wgJQlKrbsk1Rjgz7-8" value="ProviderManager" style="whiteSpace=wrap;html=1;rounded=1;" vertex="1" parent="WIyWlLk6GJQsqaUBKTNV-1">
          <mxGeometry x="440" y="178" width="110" height="30" as="geometry" />
        </mxCell>
      </root>
    </mxGraphModel>
  </diagram>
</mxfile>
